<svg version="1.1" viewBox="0.0 0.0 363.59317585301835 317.6719160104987" fill="none" stroke="none" stroke-linecap="square" stroke-miterlimit="10" xmlns:xlink="http://www.w3.org/1999/xlink" xmlns="http://www.w3.org/2000/svg"><clipPath id="p.0"><path d="m0 0l363.59317 0l0 317.6719l-363.59317 0l0 -317.6719z" clip-rule="nonzero"/></clipPath><g clip-path="url(#p.0)"><path fill="#000000" fill-opacity="0.0" d="m0 0l363.59317 0l0 317.6719l-363.59317 0z" fill-rule="evenodd"/><path fill="#000000" fill-opacity="0.0" d="m16.0 309.02756l168.77296 -298.43045l168.77296 298.43045z" fill-rule="evenodd"/><path stroke="#000000" stroke-width="16.0" stroke-linejoin="round" stroke-linecap="butt" d="m16.0 309.02756l168.77296 -298.43045l168.77296 298.43045z" fill-rule="evenodd"/><path fill="#000000" d="m192.61671 213.17494l-15.9375 0q-0.0625 -3.4375 -0.0625 -4.1875q0 -7.75 2.5625 -12.75q2.5625 -5.0 10.25 -11.25q7.6875 -6.25 9.1875 -8.1875q2.3125 -3.0625 2.3125 -6.75q0 -5.125 -4.09375 -8.78125q-4.09375 -3.65625 -11.03125 -3.65625q-6.6875 0 -11.1875 3.8125q-4.5 3.8125 -6.1875 11.625l-16.125 -2.0q0.6875 -11.1875 9.53125 -19.0q8.84375 -7.8125 23.21875 -7.8125q15.125 0 24.0625 7.90625q8.9375 7.90625 8.9375 18.40625q0 5.8125 -3.28125 11.0q-3.28125 5.1875 -14.03125 14.125q-5.5625 4.625 -6.90625 7.4375q-1.34375 2.8125 -1.21875 10.0625zm-15.9375 23.625l0 -17.5625l17.5625 0l0 17.5625l-17.5625 0z" fill-rule="nonzero"/></g></svg>