<?xml version="1.0" encoding="UTF-8" standalone="no"?>
<!-- Created with Inkscape (http://www.inkscape.org/) -->

<svg
   width="149mm"
   height="172mm"
   viewBox="0 0 149 172"
   version="1.1"
   id="svg5"
   inkscape:version="1.2.2 (732a01da63, 2022-12-09)"
   sodipodi:docname="ll_logo.svg"
   xmlns:inkscape="http://www.inkscape.org/namespaces/inkscape"
   xmlns:sodipodi="http://sodipodi.sourceforge.net/DTD/sodipodi-0.dtd"
   xmlns="http://www.w3.org/2000/svg"
   xmlns:svg="http://www.w3.org/2000/svg">
  <sodipodi:namedview
     id="namedview7"
     pagecolor="#ffffff"
     bordercolor="#666666"
     borderopacity="1.0"
     inkscape:showpageshadow="2"
     inkscape:pageopacity="0.0"
     inkscape:pagecheckerboard="0"
     inkscape:deskcolor="#d1d1d1"
     inkscape:document-units="mm"
     showgrid="false"
     inkscape:zoom="1.1893044"
     inkscape:cx="227.86429"
     inkscape:cy="438.91202"
     inkscape:window-width="2560"
     inkscape:window-height="1382"
     inkscape:window-x="1912"
     inkscape:window-y="-8"
     inkscape:window-maximized="1"
     inkscape:current-layer="layer1" />
  <defs
     id="defs2">
    <inkscape:path-effect
       effect="perspective-envelope"
       up_left_point="153.61653,332.4038"
       up_right_point="265.14604,346.5511"
       down_left_point="153.61653,401.88286"
       down_right_point="265.14604,387.73556"
       id="path-effect1269"
       is_visible="true"
       lpeversion="1"
       deform_type="perspective"
       horizontal_mirror="true"
       vertical_mirror="false"
       overflow_perspective="false" />
    <rect
       x="152.1898"
       y="328.76361"
       width="111.83007"
       height="100.89932"
       id="rect1216" />
  </defs>
  <g
     inkscape:label="Layer 1"
     inkscape:groupmode="layer"
     id="layer1"
     transform="translate(-0.37748919,-0.56895877)">
    <g
       id="g1297"
       transform="matrix(2.7763065,0,0,2.7763065,-40.557694,-39.829592)">
      <g
         aria-label="010101010101010001010010"
         transform="matrix(0.42416009,0,0,0.71303208,-48.317808,-216.25842)"
         id="text1214"
         style="font-size:21.3333px;line-height:1.25;white-space:pre;shape-inside:url(#rect1216);fill:#008000"
         inkscape:path-effect="#path-effect1269">
        <path
           d="m 171.47534,342.20588 c 0,2.60313 -0.68255,4.46046 -2.05862,5.58092 -1.37982,1.12673 -3.5564,1.59407 -6.56982,1.38948 -3.13093,-0.21257 -5.46803,-1.0219 -6.96779,-2.43587 -1.50421,-1.42879 -2.26258,-3.51718 -2.26258,-6.25329 0,-2.75694 0.77067,-4.70316 2.29907,-5.82914 1.51138,-1.12029 3.83583,-1.47598 6.9313,-1.08332 3.05855,0.38797 5.24547,1.30009 6.60275,2.73172 1.354,1.41147 2.02569,3.37428 2.02569,5.8995 z m -4.33489,4.07338 c 0.39053,-0.50263 0.65208,-1.1067 0.78543,-1.81281 0.14431,-0.71096 0.2164,-1.57251 0.2164,-2.58523 0,-0.99957 -0.0721,-1.87516 -0.2164,-2.62739 -0.13335,-0.75185 -0.40047,-1.40753 -0.80218,-1.96775 -0.39174,-0.55404 -0.9309,-1.0012 -1.61932,-1.34158 -0.68068,-0.34081 -1.56515,-0.57733 -2.65748,-0.70903 -1.0898,-0.1314 -2.00093,-0.10942 -2.72963,0.0675 -0.72084,0.17927 -1.29675,0.51319 -1.72583,1.00221 -0.40651,0.4591 -0.6882,1.08749 -0.84429,1.8848 -0.14423,0.79949 -0.21641,1.68593 -0.21641,2.65867 0,1.06863 0.0662,1.96855 0.1984,2.6992 0.1321,0.72995 0.41387,1.39629 0.84438,1.99812 0.39343,0.56306 0.94587,1.01089 1.65533,1.34341 0.71745,0.33164 1.65838,0.54009 2.81805,0.6261 1.08088,0.0802 1.97111,0.0163 2.67445,-0.19023 0.69958,-0.20544 1.23863,-0.55419 1.6191,-1.04598 z"
           id="path1220"
           inkscape:original-d="m 164.34568,340.46628 q 0,4.17708 -1.31249,6.13541 -1.30209,1.94791 -4.05208,1.94791 -2.79166,0 -4.08333,-1.97916 -1.28125,-1.97916 -1.28125,-6.08332 0,-4.13541 1.30209,-6.10416 1.30208,-1.97916 4.06249,-1.97916 2.79166,0 4.07291,2.01041 1.29166,2 1.29166,6.05207 z m -2.73958,4.72916 q 0.36459,-0.84375 0.48959,-1.97916 0.13541,-1.14583 0.13541,-2.75 0,-1.58333 -0.13541,-2.74999 -0.125,-1.16667 -0.5,-1.97917 -0.36458,-0.80208 -1,-1.20833 -0.625,-0.40625 -1.61458,-0.40625 -0.97917,0 -1.625,0.40625 -0.63541,0.40625 -1.01041,1.22917 -0.35417,0.77083 -0.48959,2.01041 -0.125,1.23958 -0.125,2.71875 0,1.62499 0.11459,2.71874 0.11458,1.09375 0.48958,1.95833 0.34375,0.8125 0.96875,1.23958 0.63541,0.42709 1.67708,0.42709 0.97916,0 1.625,-0.40625 0.64583,-0.40625 0.99999,-1.22917 z" />
        <path
           d="m 189.81734,350.72716 -11.81866,-0.81634 v -1.44237 l 4.68213,0.35048 v -9.29256 l -4.68213,-0.5282 v -1.29054 c 0.64482,0.0761 1.332,0.12569 2.06083,0.14904 0.72456,0.017 1.27019,-0.0151 1.63924,-0.0958 0.45729,-0.10085 0.81399,-0.25365 1.07095,-0.45837 0.26628,-0.20927 0.41889,-0.51262 0.45824,-0.91032 l 2.26566,0.28525 v 12.35203 l 4.32374,0.32364 z"
           id="path1222"
           inkscape:original-d="m 177.04358,348.22669 h -8.39582 v -1.58333 h 3.22916 v -10.39582 h -3.22916 v -1.41666 q 0.65625,0 1.40625,-0.10417 0.75,-0.11458 1.13541,-0.32292 0.47917,-0.26041 0.75,-0.65625 0.28125,-0.40625 0.32292,-1.08333 h 1.61458 v 13.97915 h 3.16666 z" />
        <path
           d="m 207.7077,345.73523 c 0,2.23471 -0.50284,3.83581 -1.51544,4.80995 -1.0138,0.97807 -2.60988,1.39676 -4.81331,1.24716 -2.28164,-0.1549 -3.97966,-0.82444 -5.06702,-2.01462 -1.08879,-1.20078 -1.63704,-2.96838 -1.63704,-5.29428 0,-2.34362 0.55714,-4.00932 1.66347,-4.99004 1.09583,-0.97725 2.78475,-1.31718 5.04059,-1.03103 2.23648,0.28369 3.84024,1.031 4.83754,2.23792 0.99638,1.19147 1.49121,2.86711 1.49121,5.03494 z m -3.18706,3.5397 c 0.28649,-0.4344 0.47844,-0.95457 0.57632,-1.56094 0.10594,-0.61075 0.15888,-1.3498 0.15888,-2.21759 0,-0.85653 -0.0529,-1.60588 -0.15888,-2.24854 -0.0979,-0.64237 -0.29392,-1.20041 -0.58861,-1.67463 -0.28726,-0.46886 -0.68242,-0.84388 -1.18662,-1.1251 -0.49816,-0.2815 -1.1449,-0.47057 -1.94278,-0.56677 -0.79507,-0.0959 -1.45906,-0.0634 -1.98963,0.0985 -0.52443,0.16363 -0.94312,0.45684 -1.25489,0.87992 -0.29523,0.39708 -0.49973,0.93645 -0.61301,1.61786 -0.10467,0.683 -0.15705,1.43902 -0.15705,2.26761 0,0.91028 0.048,1.67608 0.14398,2.29703 0.0959,0.62043 0.30042,1.18521 0.61308,1.69368 0.28585,0.47602 0.68744,0.85246 1.20355,1.12928 0.52232,0.27622 1.20796,0.44541 2.05397,0.50815 0.7895,0.0586 1.44045,-0.004 1.9552,-0.18748 0.5124,-0.1824 0.90748,-0.4861 1.18649,-0.91094 z"
           id="path1224"
           inkscape:original-d="m 191.47064,340.46628 q 0,4.17708 -1.3125,6.13541 -1.30208,1.94791 -4.05207,1.94791 -2.79167,0 -4.08333,-1.97916 -1.28125,-1.97916 -1.28125,-6.08332 0,-4.13541 1.30208,-6.10416 1.30208,-1.97916 4.0625,-1.97916 2.79166,0 4.07291,2.01041 1.29166,2 1.29166,6.05207 z m -2.73958,4.72916 q 0.36459,-0.84375 0.48959,-1.97916 0.13541,-1.14583 0.13541,-2.75 0,-1.58333 -0.13541,-2.74999 -0.125,-1.16667 -0.5,-1.97917 -0.36459,-0.80208 -1,-1.20833 -0.625,-0.40625 -1.61458,-0.40625 -0.97917,0 -1.625,0.40625 -0.63542,0.40625 -1.01042,1.22917 -0.35416,0.77083 -0.48958,2.01041 -0.125,1.23958 -0.125,2.71875 0,1.62499 0.11459,2.71874 0.11458,1.09375 0.48958,1.95833 0.34375,0.8125 0.96875,1.23958 0.63541,0.42709 1.67708,0.42709 0.97916,0 1.62499,-0.40625 0.64584,-0.40625 1,-1.22917 z" />
        <path
           d="m 221.36375,352.90615 -8.83112,-0.60999 v -1.24271 l 3.48469,0.26084 v -8.02713 l -3.48469,-0.39312 v -1.1119 c 0.47883,0.0565 0.9895,0.0896 1.53155,0.0995 0.5393,0.004 0.94571,-0.0308 1.22074,-0.10572 0.34094,-0.0935 0.60699,-0.23057 0.79873,-0.41107 0.19874,-0.18463 0.31267,-0.44896 0.34205,-0.79317 l 1.69378,0.21324 v 10.68669 l 3.24427,0.24285 z"
           id="path1226"
           inkscape:original-d="m 204.16854,348.22669 h -8.39582 v -1.58333 h 3.22916 v -10.39582 h -3.22916 v -1.41666 q 0.65625,0 1.40625,-0.10417 0.75,-0.11458 1.13541,-0.32292 0.47917,-0.26041 0.75,-0.65625 0.28125,-0.40625 0.32292,-1.08333 h 1.61458 v 13.97915 h 3.16666 z" />
        <path
           d="m 234.9558,348.38943 c 0,1.95765 -0.38577,3.3646 -1.16197,4.22602 -0.77623,0.86389 -1.99649,1.2421 -3.6775,1.12797 -1.73628,-0.11788 -3.02556,-0.68815 -3.84988,-1.71552 -0.82441,-1.03533 -1.23915,-2.56752 -1.23915,-4.59019 0,-2.03806 0.42147,-3.49384 1.25917,-4.36187 0.83078,-0.86595 2.11319,-1.18595 3.82986,-0.96819 1.70626,0.21644 2.93244,0.84775 3.69606,1.89055 0.76378,1.03045 1.14341,2.49217 1.14341,4.39123 z m -2.44139,3.12893 c 0.2191,-0.38244 0.36593,-0.83915 0.44082,-1.37047 0.0811,-0.53528 0.12159,-1.18233 0.12159,-1.94149 0,-0.74929 -0.0405,-1.40423 -0.12159,-1.96517 -0.0749,-0.56071 -0.22485,-1.0464 -0.45023,-1.45744 -0.21961,-0.4063 -0.5216,-0.72904 -0.90673,-0.96824 -0.3803,-0.23938 -0.87371,-0.39592 -1.48194,-0.46926 -0.60553,-0.073 -1.11083,-0.0358 -1.51431,0.11244 -0.39859,0.1496 -0.71664,0.41065 -0.95337,0.78336 -0.2241,0.34971 -0.37928,0.82213 -0.46523,1.41705 -0.0794,0.59613 -0.11914,1.25519 -0.11914,1.97684 0,0.79279 0.0364,1.45927 0.10921,1.99915 0.0727,0.53949 0.22797,1.02955 0.46529,1.46969 0.21705,0.41226 0.52209,0.73686 0.91431,0.97378 0.39719,0.23649 0.91893,0.37839 1.56324,0.42618 0.60184,0.0446 1.09846,-0.0156 1.49143,-0.17995 0.39139,-0.1637 0.69333,-0.43257 0.90665,-0.80647 z"
           id="path1228"
           inkscape:original-d="m 218.5956,340.46628 q 0,4.17708 -1.3125,6.13541 -1.30208,1.94791 -4.05207,1.94791 -2.79167,0 -4.08333,-1.97916 -1.28125,-1.97916 -1.28125,-6.08332 0,-4.13541 1.30208,-6.10416 1.30208,-1.97916 4.0625,-1.97916 2.79166,0 4.07291,2.01041 1.29166,2 1.29166,6.05207 z m -2.73958,4.72916 q 0.36458,-0.84375 0.48958,-1.97916 0.13542,-1.14583 0.13542,-2.75 0,-1.58333 -0.13542,-2.74999 -0.125,-1.16667 -0.5,-1.97917 -0.36458,-0.80208 -0.99999,-1.20833 -0.625,-0.40625 -1.61458,-0.40625 -0.97917,0 -1.625,0.40625 -0.63542,0.40625 -1.01042,1.22917 -0.35416,0.77083 -0.48958,2.01041 -0.125,1.23958 -0.125,2.71875 0,1.62499 0.11458,2.71874 0.11459,1.09375 0.48959,1.95833 0.34375,0.8125 0.96874,1.23958 0.63542,0.42709 1.67709,0.42709 0.97916,0 1.62499,-0.40625 0.64583,-0.40625 1,-1.22917 z" />
        <path
           d="m 245.51694,354.57446 -6.84834,-0.47303 v -1.09161 l 2.69411,0.20166 v -7.06503 l -2.69411,-0.30393 v -0.9767 c 0.36956,0.0436 0.76392,0.0663 1.18276,0.0682 0.41698,-0.003 0.73138,-0.039 0.94423,-0.10837 0.26393,-0.0866 0.46998,-0.2106 0.61851,-0.37192 0.15398,-0.16508 0.24227,-0.39925 0.26503,-0.70267 l 1.31397,0.16543 v 9.41705 l 2.52384,0.18892 z"
           id="path1230"
           inkscape:original-d="m 231.2935,348.22669 h -8.39582 v -1.58333 h 3.22916 v -10.39582 h -3.22916 v -1.41666 q 0.65624,0 1.40624,-0.10417 0.75,-0.11458 1.13542,-0.32292 0.47916,-0.26041 0.75,-0.65625 0.28125,-0.40625 0.32291,-1.08333 h 1.61458 v 13.97915 h 3.16667 z" />
        <path
           d="m 256.19267,350.45809 c 0,1.74171 -0.30529,2.99649 -0.91914,3.76847 -0.61334,0.77348 -1.57644,1.11783 -2.90097,1.0279 -1.36542,-0.0927 -2.37757,-0.58897 -3.02393,-1.49263 -0.64581,-0.90985 -0.97047,-2.26194 -0.97047,-4.05132 0,-1.803 0.32993,-3.09579 0.98616,-3.87407 0.65144,-0.77708 1.65822,-1.07688 3.00824,-0.90563 1.34445,0.17054 2.31225,0.71613 2.91564,1.6339 0.60404,0.90759 0.90447,2.20379 0.90447,3.89338 z m -1.92979,2.80321 c 0.17297,-0.34156 0.28891,-0.74861 0.34805,-1.22141 0.064,-0.47641 0.096,-1.05184 0.096,-1.72653 0,-0.66592 -0.032,-1.24757 -0.096,-1.74522 -0.0591,-0.49748 -0.17755,-0.9274 -0.35547,-1.29007 -0.17333,-0.35845 -0.4116,-0.64161 -0.71535,-0.8495 -0.29981,-0.20801 -0.6886,-0.34105 -1.16755,-0.3988 -0.47651,-0.0574 -0.87388,-0.0183 -1.19102,0.11792 -0.31315,0.13737 -0.56292,0.37248 -0.74877,0.70547 -0.17589,0.3124 -0.29766,0.73263 -0.3651,1.26054 -0.0623,0.52886 -0.0935,1.113 -0.0935,1.75216 0,0.70217 0.0286,1.29214 0.0857,1.76967 0.0571,0.47722 0.17887,0.91002 0.36513,1.298 0.1704,0.36353 0.40994,0.6488 0.71808,0.85578 0.31217,0.20665 0.72245,0.32858 1.22946,0.36619 0.47392,0.0351 0.86523,-0.022 1.17502,-0.17087 0.3087,-0.14835 0.54694,-0.38949 0.7153,-0.72333 z"
           id="path1232"
           inkscape:original-d="m 245.72056,340.46628 q 0,4.17708 -1.3125,6.13541 -1.30208,1.94791 -4.05207,1.94791 -2.79167,0 -4.08333,-1.97916 -1.28125,-1.97916 -1.28125,-6.08332 0,-4.13541 1.30208,-6.10416 1.30208,-1.97916 4.0625,-1.97916 2.79166,0 4.07291,2.01041 1.29166,2 1.29166,6.05207 z m -2.73958,4.72916 q 0.36459,-0.84375 0.48959,-1.97916 0.13541,-1.14583 0.13541,-2.75 0,-1.58333 -0.13541,-2.74999 -0.125,-1.16667 -0.5,-1.97917 -0.36459,-0.80208 -1,-1.20833 -0.625,-0.40625 -1.61458,-0.40625 -0.97917,0 -1.625,0.40625 -0.63542,0.40625 -1.01042,1.22917 -0.35416,0.77083 -0.48958,2.01041 -0.125,1.23958 -0.125,2.71875 0,1.62499 0.11459,2.71874 0.11458,1.09375 0.48958,1.95833 0.34375,0.8125 0.96875,1.23958 0.63541,0.42709 1.67708,0.42709 0.97916,0 1.62499,-0.40625 0.64584,-0.40625 1,-1.22917 z" />
        <path
           d="m 264.60331,355.8928 -5.46548,-0.37751 v -0.97327 l 2.14496,0.16055 0,-6.30888 -2.14496,-0.24198 v -0.87082 c 0.29385,0.0347 0.60754,0.0504 0.94086,0.0473 0.332,-0.007 0.58243,-0.0432 0.75202,-0.10749 0.21037,-0.0804 0.37463,-0.19344 0.49306,-0.33922 0.12281,-0.14922 0.19322,-0.3594 0.21138,-0.63066 l 1.04894,0.13206 0,8.41706 2.01922,0.15115 z"
           id="path1234"
           inkscape:original-d="m 258.41846,348.22669 h -8.39582 v -1.58333 h 3.22916 v -10.39582 h -3.22916 v -1.41666 q 0.65625,0 1.40624,-0.10417 0.75,-0.11458 1.13542,-0.32292 0.47917,-0.26041 0.75,-0.65625 0.28125,-0.40625 0.32291,-1.08333 h 1.61459 v 13.97915 h 3.16666 z" />
        <path
           d="m 171.47534,367.13359 c 0,2.60313 -0.68255,4.52691 -2.05862,5.78136 -1.37982,1.26109 -3.5564,1.94036 -6.56982,2.02919 -3.13093,0.0923 -5.46803,-0.48947 -6.96779,-1.75741 -1.50421,-1.28233 -2.26258,-3.29688 -2.26258,-6.03299 0,-2.75694 0.77067,-4.7782 2.29907,-6.05299 1.51138,-1.26746 3.83583,-1.84949 6.9313,-1.75824 3.05855,0.0902 5.24547,0.78934 6.60275,2.08882 1.354,1.27963 2.02569,3.17703 2.02569,5.70226 z m -4.33489,4.49546 c 0.39053,-0.54065 0.65208,-1.17019 0.78543,-1.88928 0.14431,-0.72502 0.2164,-1.59359 0.2164,-2.60631 0,-0.99956 -0.0721,-1.86813 -0.2164,-2.60632 -0.13335,-0.73886 -0.40047,-1.36852 -0.80218,-1.88963 -0.39174,-0.51589 -0.9309,-0.91056 -1.61932,-1.18391 -0.68068,-0.27453 -1.56515,-0.42493 -2.65748,-0.45027 -1.0898,-0.0253 -2.00093,0.0854 -2.72963,0.33327 -0.72084,0.24947 -1.29675,0.63946 -1.72583,1.17025 -0.40651,0.49869 -0.6882,1.15451 -0.84429,1.96702 -0.14423,0.81354 -0.21641,1.707 -0.21641,2.67973 0,1.06864 0.0662,1.96212 0.1984,2.6799 0.1321,0.71708 0.41387,1.35599 0.84438,1.9159 0.39343,0.52475 0.94587,0.91879 1.65533,1.18222 0.71745,0.26178 1.65838,0.37861 2.81805,0.3517 1.08088,-0.0251 1.97111,-0.17561 2.67445,-0.45064 0.69958,-0.27356 1.23863,-0.67479 1.6191,-1.20363 z"
           id="path1236"
           inkscape:original-d="m 164.34568,367.13291 q 0,4.17708 -1.31249,6.13541 -1.30209,1.94791 -4.05208,1.94791 -2.79166,0 -4.08333,-1.97916 -1.28125,-1.97917 -1.28125,-6.08333 0,-4.13541 1.30209,-6.10415 1.30208,-1.97917 4.06249,-1.97917 2.79166,0 4.07291,2.01042 1.29166,1.99999 1.29166,6.05207 z m -2.73958,4.72916 q 0.36459,-0.84375 0.48959,-1.97916 0.13541,-1.14584 0.13541,-2.75 0,-1.58333 -0.13541,-2.75 -0.125,-1.16666 -0.5,-1.97916 -0.36458,-0.80208 -1,-1.20833 -0.625,-0.40625 -1.61458,-0.40625 -0.97917,0 -1.625,0.40625 -0.63541,0.40625 -1.01041,1.22916 -0.35417,0.77084 -0.48959,2.01042 -0.125,1.23958 -0.125,2.71874 0,1.625 0.11459,2.71875 0.11458,1.09375 0.48958,1.95833 0.34375,0.8125 0.96875,1.23958 0.63541,0.42708 1.67708,0.42708 0.97916,0 1.625,-0.40625 0.64583,-0.40625 0.99999,-1.22916 z" />
        <path
           d="m 189.81734,373.86889 -11.81866,0.33445 v -1.44237 l 4.68213,-0.10543 v -9.29255 l -4.68213,-0.0723 v -1.29055 c 0.64482,0.0133 1.332,-0.004 2.06083,-0.0516 0.72456,-0.0536 1.27019,-0.13874 1.63924,-0.25539 0.45729,-0.14538 0.81399,-0.33291 1.07095,-0.56264 0.26628,-0.2352 0.41889,-0.55341 0.45824,-0.95494 l 2.26566,0.0646 v 12.35203 l 4.32374,-0.0974 z"
           id="path1238"
           inkscape:original-d="m 177.04358,374.89331 h -8.39582 v -1.58333 h 3.22916 v -10.39581 h -3.22916 v -1.41667 q 0.65625,0 1.40625,-0.10416 0.75,-0.11459 1.13541,-0.32292 0.47917,-0.26042 0.75,-0.65625 0.28125,-0.40625 0.32292,-1.08333 h 1.61458 v 13.97914 h 3.16666 z" />
        <path
           d="m 207.7077,367.13497 c 0,2.23471 -0.50284,3.88476 -1.51544,4.9575 -1.0138,1.07679 -2.60988,1.6509 -4.81331,1.71585 -2.28164,0.0673 -3.97966,-0.43694 -5.06702,-1.52125 -1.08879,-1.09477 -1.63704,-2.80898 -1.63704,-5.13489 0,-2.34362 0.55714,-4.06356 1.66347,-5.152 1.09583,-1.08396 2.78475,-1.58834 5.04059,-1.52185 2.23648,0.0659 3.84024,0.65708 4.83754,1.76689 0.99638,1.09445 1.49121,2.72191 1.49121,4.88975 z m -3.18706,3.85002 c 0.28649,-0.46229 0.47844,-1.00115 0.57632,-1.61705 0.10594,-0.62107 0.15888,-1.36527 0.15888,-2.23307 0,-0.85652 -0.0529,-1.60072 -0.15888,-2.23307 -0.0979,-0.63283 -0.29392,-1.17178 -0.58861,-1.61731 -0.28726,-0.44089 -0.68242,-0.77743 -1.18662,-1.00956 -0.49816,-0.23299 -1.1449,-0.35908 -1.94278,-0.3776 -0.79507,-0.0184 -1.45906,0.0787 -1.98963,0.29219 -0.52443,0.2147 -0.94312,0.54867 -1.25489,1.00211 -0.29523,0.42582 -0.49973,0.98511 -0.61301,1.67755 -0.10467,0.69319 -0.15705,1.45431 -0.15705,2.2829 0,0.91028 0.048,1.67141 0.14398,2.28302 0.0959,0.61109 0.30042,1.15595 0.61308,1.63398 0.28585,0.44818 0.68744,0.78552 1.20355,1.01209 0.52232,0.22535 1.20796,0.32778 2.05397,0.30815 0.7895,-0.0183 1.44045,-0.14451 1.9552,-0.37787 0.5124,-0.23228 0.90748,-0.57446 1.18649,-1.02646 z"
           id="path1240"
           inkscape:original-d="m 191.47064,367.13291 q 0,4.17708 -1.3125,6.13541 -1.30208,1.94791 -4.05207,1.94791 -2.79167,0 -4.08333,-1.97916 -1.28125,-1.97917 -1.28125,-6.08333 0,-4.13541 1.30208,-6.10415 1.30208,-1.97917 4.0625,-1.97917 2.79166,0 4.07291,2.01042 1.29166,1.99999 1.29166,6.05207 z m -2.73958,4.72916 q 0.36459,-0.84375 0.48959,-1.97916 0.13541,-1.14584 0.13541,-2.75 0,-1.58333 -0.13541,-2.75 -0.125,-1.16666 -0.5,-1.97916 -0.36459,-0.80208 -1,-1.20833 -0.625,-0.40625 -1.61458,-0.40625 -0.97917,0 -1.625,0.40625 -0.63542,0.40625 -1.01042,1.22916 -0.35416,0.77084 -0.48958,2.01042 -0.125,1.23958 -0.125,2.71874 0,1.625 0.11459,2.71875 0.11458,1.09375 0.48958,1.95833 0.34375,0.8125 0.96875,1.23958 0.63541,0.42708 1.67708,0.42708 0.97916,0 1.62499,-0.40625 0.64584,-0.40625 1,-1.22916 z" />
        <path
           d="m 221.36375,372.97618 -8.83112,0.2499 v -1.24271 l 3.48469,-0.0785 v -8.02712 l -3.48469,-0.0538 v -1.1119 c 0.47883,0.01 0.9895,-0.007 1.53155,-0.0496 0.5393,-0.0481 0.94571,-0.12292 1.22074,-0.22458 0.34094,-0.12674 0.60699,-0.28968 0.79873,-0.48885 0.19874,-0.20398 0.31267,-0.4794 0.34205,-0.82647 l 1.69378,0.0483 v 10.68668 l 3.24427,-0.0731 z"
           id="path1242"
           inkscape:original-d="m 204.16854,374.89331 h -8.39582 v -1.58333 h 3.22916 v -10.39581 h -3.22916 v -1.41667 q 0.65625,0 1.40625,-0.10416 0.75,-0.11459 1.13541,-0.32292 0.47917,-0.26042 0.75,-0.65625 0.28125,-0.40625 0.32292,-1.08333 h 1.61458 v 13.97914 h 3.16666 z" />
        <path
           d="m 234.9558,367.136 c 0,1.95766 -0.38577,3.40217 -1.16197,4.33917 -0.77623,0.93947 -1.99649,1.43649 -3.6775,1.48604 -1.73628,0.0512 -3.02556,-0.39354 -3.84988,-1.34065 -0.82441,-0.95506 -1.23915,-2.44687 -1.23915,-4.46953 0,-2.03807 0.42147,-3.53488 1.25917,-4.48448 0.83078,-0.94685 2.11319,-1.39171 3.82986,-1.34111 1.70626,0.0503 2.93244,0.56221 3.69606,1.53066 0.76378,0.95608 1.14341,2.38084 1.14341,4.2799 z m -2.44139,3.36666 c 0.2191,-0.40378 0.36593,-0.87479 0.44082,-1.4134 0.0811,-0.54318 0.12159,-1.19418 0.12159,-1.95333 0,-0.74929 -0.0405,-1.40029 -0.12159,-1.95333 -0.0749,-0.55342 -0.22485,-1.0245 -0.45023,-1.4136 -0.21961,-0.38492 -0.5216,-0.67826 -0.90673,-0.87996 -0.3803,-0.20235 -0.87371,-0.31084 -1.48194,-0.32495 -0.60553,-0.014 -1.11083,0.0724 -1.51431,0.25988 -0.39859,0.18842 -0.71664,0.48043 -0.95337,0.87619 -0.2241,0.37153 -0.37928,0.85907 -0.46523,1.46236 -0.0794,0.60385 -0.11914,1.26678 -0.11914,1.98843 0,0.7928 0.0364,1.45573 0.10921,1.98853 0.0727,0.5324 0.22797,1.00735 0.46529,1.42438 0.21705,0.39112 0.52209,0.68602 0.91431,0.88475 0.39719,0.19781 0.91893,0.2889 1.56324,0.27395 0.60184,-0.014 1.09846,-0.12253 1.49143,-0.32516 0.39139,-0.20182 0.69333,-0.50008 0.90665,-0.89474 z"
           id="path1244"
           inkscape:original-d="m 218.5956,367.13291 q 0,4.17708 -1.3125,6.13541 -1.30208,1.94791 -4.05207,1.94791 -2.79167,0 -4.08333,-1.97916 -1.28125,-1.97917 -1.28125,-6.08333 0,-4.13541 1.30208,-6.10415 1.30208,-1.97917 4.0625,-1.97917 2.79166,0 4.07291,2.01042 1.29166,1.99999 1.29166,6.05207 z m -2.73958,4.72916 q 0.36458,-0.84375 0.48958,-1.97916 0.13542,-1.14584 0.13542,-2.75 0,-1.58333 -0.13542,-2.75 -0.125,-1.16666 -0.5,-1.97916 -0.36458,-0.80208 -0.99999,-1.20833 -0.625,-0.40625 -1.61458,-0.40625 -0.97917,0 -1.625,0.40625 -0.63542,0.40625 -1.01042,1.22916 -0.35416,0.77084 -0.48958,2.01042 -0.125,1.23958 -0.125,2.71874 0,1.625 0.11458,2.71875 0.11459,1.09375 0.48959,1.95833 0.34375,0.8125 0.96874,1.23958 0.63542,0.42708 1.67709,0.42708 0.97916,0 1.62499,-0.40625 0.64583,-0.40625 1,-1.22916 z" />
        <path
           d="m 245.51694,372.29268 -6.84834,0.1938 v -1.09161 l 2.69411,-0.0607 v -7.06503 l -2.69411,-0.0416 v -0.97671 c 0.36956,0.008 0.76392,-0.008 1.18276,-0.047 0.41698,-0.0435 0.73138,-0.11024 0.94423,-0.20031 0.26393,-0.11232 0.46998,-0.25636 0.61851,-0.43215 0.15398,-0.18007 0.24227,-0.42284 0.26503,-0.72847 l 1.31397,0.0375 v 9.41704 l 2.52384,-0.0568 z"
           id="path1246"
           inkscape:original-d="m 231.2935,374.89331 h -8.39582 v -1.58333 h 3.22916 v -10.39581 h -3.22916 v -1.41667 q 0.65624,0 1.40624,-0.10416 0.75,-0.11459 1.13542,-0.32292 0.47916,-0.26042 0.75,-0.65625 0.28125,-0.40625 0.32291,-1.08333 h 1.61458 v 13.97914 h 3.16667 z" />
        <path
           d="m 256.19267,367.13681 c 0,1.74171 -0.30529,3.02622 -0.91914,3.85797 -0.61334,0.8332 -1.57644,1.27133 -2.90097,1.31038 -1.36542,0.0403 -2.37757,-0.35747 -3.02393,-1.1982 -0.64581,-0.84696 -0.97047,-2.16744 -0.97047,-3.95682 0,-1.80301 0.32993,-3.12792 0.98616,-3.97009 0.65144,-0.84052 1.65822,-1.23835 3.00824,-1.19855 1.34445,0.0396 2.31225,0.49099 2.91564,1.35 0.60404,0.84877 0.90447,2.11572 0.90447,3.80531 z m -1.92979,2.99112 c 0.17297,-0.35841 0.28891,-0.77674 0.34805,-1.2553 0.064,-0.48265 0.096,-1.06119 0.096,-1.73587 0,-0.66593 -0.032,-1.24447 -0.096,-1.73589 -0.0591,-0.49171 -0.17755,-0.9101 -0.35547,-1.25545 -0.17333,-0.34156 -0.4116,-0.60152 -0.71535,-0.77984 -0.29981,-0.17882 -0.6886,-0.274 -1.16755,-0.28511 -0.47651,-0.0111 -0.87388,0.0667 -1.19102,0.23389 -0.31315,0.16786 -0.56292,0.42728 -0.74877,0.77837 -0.17589,0.32952 -0.29766,0.76162 -0.3651,1.2961 -0.0623,0.53492 -0.0935,1.12209 -0.0935,1.76125 0,0.70217 0.0286,1.28936 0.0857,1.76133 0.0571,0.47166 0.17887,0.8926 0.36513,1.26244 0.1704,0.34694 0.40994,0.60889 0.71808,0.78587 0.31217,0.17625 0.72245,0.25823 1.22946,0.24647 0.47392,-0.011 0.86523,-0.10624 1.17502,-0.28528 0.3087,-0.17841 0.54694,-0.44275 0.7153,-0.79298 z"
           id="path1248"
           inkscape:original-d="m 245.72056,367.13291 q 0,4.17708 -1.3125,6.13541 -1.30208,1.94791 -4.05207,1.94791 -2.79167,0 -4.08333,-1.97916 -1.28125,-1.97917 -1.28125,-6.08333 0,-4.13541 1.30208,-6.10415 1.30208,-1.97917 4.0625,-1.97917 2.79166,0 4.07291,2.01042 1.29166,1.99999 1.29166,6.05207 z m -2.73958,4.72916 q 0.36459,-0.84375 0.48959,-1.97916 0.13541,-1.14584 0.13541,-2.75 0,-1.58333 -0.13541,-2.75 -0.125,-1.16666 -0.5,-1.97916 -0.36459,-0.80208 -1,-1.20833 -0.625,-0.40625 -1.61458,-0.40625 -0.97917,0 -1.625,0.40625 -0.63542,0.40625 -1.01042,1.22916 -0.35416,0.77084 -0.48958,2.01042 -0.125,1.23958 -0.125,2.71874 0,1.625 0.11459,2.71875 0.11458,1.09375 0.48958,1.95833 0.34375,0.8125 0.96875,1.23958 0.63541,0.42708 1.67708,0.42708 0.97916,0 1.62499,-0.40625 0.64584,-0.40625 1,-1.22916 z" />
        <path
           d="m 265.14604,367.13715 c 0,1.65068 -0.27418,2.86778 -0.82534,3.65529 -0.55049,0.7886 -1.41447,1.20221 -2.60187,1.23721 -1.22305,0.0361 -2.129,-0.34168 -2.70724,-1.13769 -0.57754,-0.80161 -0.86779,-2.05038 -0.86779,-3.74219 0,-1.7047 0.29496,-2.95767 0.88182,-3.75475 0.5828,-0.79583 1.48396,-1.17367 2.69321,-1.13802 1.20526,0.0355 2.07347,0.46167 2.61503,1.27475 0.54235,0.80366 0.81218,2.00413 0.81218,3.6054 z m -1.73231,2.83311 c 0.15518,-0.33934 0.25921,-0.73552 0.31228,-1.18881 0.0575,-0.45718 0.0862,-1.00522 0.0862,-1.64435 0,-0.63083 -0.0287,-1.17887 -0.0862,-1.64435 -0.0531,-0.46575 -0.15931,-0.86199 -0.31894,-1.18895 -0.15549,-0.32335 -0.36921,-0.56932 -0.64163,-0.73786 -0.26882,-0.169 -0.61736,-0.25866 -1.04661,-0.26862 -0.42693,-0.01 -0.78287,0.0642 -1.06688,0.22272 -0.28038,0.15917 -0.50398,0.40488 -0.67034,0.73722 -0.15742,0.31189 -0.26639,0.72073 -0.32674,1.22637 -0.0557,0.50604 -0.0836,1.06148 -0.0836,1.66608 0,0.66421 0.0256,1.21966 0.0767,1.66615 0.0511,0.44621 0.16007,0.8445 0.32677,1.19454 0.15252,0.3284 0.36696,0.57648 0.64285,0.74427 0.27956,0.16714 0.64705,0.24521 1.10131,0.23467 0.42475,-0.01 0.77555,-0.0996 1.05333,-0.26877 0.27684,-0.16863 0.49054,-0.41874 0.64157,-0.75031 z"
           id="path1250"
           inkscape:original-d="m 259.28304,367.13291 q 0,4.17708 -1.3125,6.13541 -1.30208,1.94791 -4.05208,1.94791 -2.79166,0 -4.08332,-1.97916 -1.28125,-1.97917 -1.28125,-6.08333 0,-4.13541 1.30208,-6.10415 1.30208,-1.97917 4.06249,-1.97917 2.79167,0 4.07291,2.01042 1.29167,1.99999 1.29167,6.05207 z m -2.73958,4.72916 q 0.36458,-0.84375 0.48958,-1.97916 0.13542,-1.14584 0.13542,-2.75 0,-1.58333 -0.13542,-2.75 -0.125,-1.16666 -0.5,-1.97916 -0.36458,-0.80208 -1,-1.20833 -0.62499,-0.40625 -1.61458,-0.40625 -0.97916,0 -1.62499,0.40625 -0.63542,0.40625 -1.01042,1.22916 -0.35416,0.77084 -0.48958,2.01042 -0.125,1.23958 -0.125,2.71874 0,1.625 0.11458,2.71875 0.11459,1.09375 0.48958,1.95833 0.34375,0.8125 0.96875,1.23958 0.63542,0.42708 1.67708,0.42708 0.97917,0 1.625,-0.40625 0.64583,-0.40625 1,-1.22916 z" />
        <path
           d="m 171.47534,392.06129 c 0,2.60313 -0.68255,4.59337 -2.05862,5.98181 -1.37982,1.39544 -3.5564,2.28666 -6.56982,2.6689 -3.13093,0.39716 -5.46803,0.043 -6.96779,-1.07897 -1.50421,-1.13585 -2.26258,-3.07656 -2.26258,-5.81266 0,-2.75694 0.77067,-4.85325 2.29907,-6.27687 1.51138,-1.41461 3.83583,-2.22297 6.9313,-2.43313 3.05855,-0.20766 5.24547,0.27858 6.60275,1.4459 1.354,1.14779 2.02569,2.97979 2.02569,5.50502 z m -4.33489,4.91755 c 0.39053,-0.57867 0.65208,-1.23368 0.78543,-1.96576 0.14431,-0.73907 0.2164,-1.61465 0.2164,-2.62737 0,-0.99957 -0.0721,-1.86112 -0.2164,-2.58525 -0.13335,-0.72588 -0.40047,-1.32954 -0.80218,-1.81153 -0.39174,-0.47775 -0.9309,-0.81992 -1.61932,-1.02624 -0.68068,-0.20824 -1.56515,-0.27252 -2.65748,-0.1915 -1.0898,0.0808 -2.00093,0.28025 -2.72963,0.59905 -0.72084,0.31965 -1.29675,0.76573 -1.72583,1.3383 -0.40651,0.53827 -0.6882,1.22151 -0.84429,2.04922 -0.14423,0.82758 -0.21641,1.72807 -0.21641,2.70081 0,1.06864 0.0662,1.95567 0.1984,2.66057 0.1321,0.70422 0.41387,1.31569 0.84438,1.83369 0.39343,0.48643 0.94587,0.82669 1.65533,1.02105 0.71745,0.19192 1.65838,0.21713 2.81805,0.0773 1.08088,-0.13032 1.97111,-0.36754 2.67445,-0.71105 0.69958,-0.34168 1.23863,-0.7954 1.6191,-1.36129 z"
           id="path1252"
           inkscape:original-d="m 164.34568,393.79954 q 0,4.17707 -1.31249,6.1354 -1.30209,1.94792 -4.05208,1.94792 -2.79166,0 -4.08333,-1.97917 -1.28125,-1.97916 -1.28125,-6.08332 0,-4.13541 1.30209,-6.10416 1.30208,-1.97916 4.06249,-1.97916 2.79166,0 4.07291,2.01041 1.29166,2 1.29166,6.05208 z m -2.73958,4.72915 q 0.36459,-0.84374 0.48959,-1.97916 0.13541,-1.14583 0.13541,-2.74999 0,-1.58334 -0.13541,-2.75 -0.125,-1.16667 -0.5,-1.97916 -0.36458,-0.80209 -1,-1.20834 -0.625,-0.40624 -1.61458,-0.40624 -0.97917,0 -1.625,0.40624 -0.63541,0.40625 -1.01041,1.22917 -0.35417,0.77083 -0.48959,2.01041 -0.125,1.23958 -0.125,2.71875 0,1.625 0.11459,2.71874 0.11458,1.09375 0.48958,1.95833 0.34375,0.8125 0.96875,1.23959 0.63541,0.42708 1.67708,0.42708 0.97916,0 1.625,-0.40625 0.64583,-0.40625 0.99999,-1.22917 z" />
        <path
           d="m 189.81734,397.01062 -11.81866,1.48524 v -1.44237 l 4.68213,-0.56133 v -9.29256 l -4.68213,0.3836 v -1.29053 c 0.64482,-0.0495 1.332,-0.1337 2.06083,-0.2523 0.72456,-0.12414 1.27019,-0.26241 1.63924,-0.41499 0.45729,-0.18991 0.81399,-0.41217 1.07095,-0.66692 0.26628,-0.26113 0.41889,-0.59421 0.45824,-0.99957 l 2.26566,-0.15598 v 12.35203 l 4.32374,-0.51836 z"
           id="path1254"
           inkscape:original-d="m 177.04358,401.55994 h -8.39582 v -1.58333 h 3.22916 v -10.39582 h -3.22916 v -1.41666 q 0.65625,0 1.40625,-0.10417 0.75,-0.11458 1.13541,-0.32291 0.47917,-0.26042 0.75,-0.65625 0.28125,-0.40625 0.32292,-1.08334 h 1.61458 v 13.97915 h 3.16666 z" />
        <path
           d="m 207.7077,388.53471 c 0,2.2347 -0.50284,3.93372 -1.51544,5.10505 -1.0138,1.17551 -2.60988,1.90503 -4.81331,2.18453 -2.28164,0.28942 -3.97966,-0.0494 -5.06702,-1.02788 -1.08879,-0.98875 -1.63704,-2.64957 -1.63704,-4.97548 0,-2.34362 0.55714,-4.11781 1.66347,-5.31398 1.09583,-1.19065 2.78475,-1.85949 5.04059,-2.01264 2.23648,-0.15185 3.84024,0.28314 4.83754,1.29584 0.99638,0.99744 1.49121,2.57672 1.49121,4.74456 z m -3.18706,4.16034 c 0.28649,-0.49019 0.47844,-1.04774 0.57632,-1.67318 0.10594,-0.63137 0.15888,-1.38073 0.15888,-2.24852 0,-0.85653 -0.0529,-1.59558 -0.15888,-2.2176 -0.0979,-0.62331 -0.29392,-1.14317 -0.58861,-1.56 -0.28726,-0.41292 -0.68242,-0.71099 -1.18662,-0.89403 -0.49816,-0.18448 -1.1449,-0.24759 -1.94278,-0.18841 -0.79507,0.059 -1.45906,0.22073 -1.98963,0.48591 -0.52443,0.26576 -0.94312,0.6405 -1.25489,1.1243 -0.29523,0.45457 -0.49973,1.03377 -0.61301,1.73724 -0.10467,0.70338 -0.15705,1.4696 -0.15705,2.29819 0,0.91028 0.048,1.66674 0.14398,2.26899 0.0959,0.60176 0.30042,1.1267 0.61308,1.57429 0.28585,0.42035 0.68744,0.71859 1.20355,0.89491 0.52232,0.1745 1.20796,0.21015 2.05397,0.10815 0.7895,-0.0952 1.44045,-0.28477 1.9552,-0.56824 0.5124,-0.28218 0.90748,-0.66283 1.18649,-1.142 z"
           id="path1256"
           inkscape:original-d="m 191.47064,393.79954 q 0,4.17707 -1.3125,6.1354 -1.30208,1.94792 -4.05207,1.94792 -2.79167,0 -4.08333,-1.97917 -1.28125,-1.97916 -1.28125,-6.08332 0,-4.13541 1.30208,-6.10416 1.30208,-1.97916 4.0625,-1.97916 2.79166,0 4.07291,2.01041 1.29166,2 1.29166,6.05208 z m -2.73958,4.72915 q 0.36459,-0.84374 0.48959,-1.97916 0.13541,-1.14583 0.13541,-2.74999 0,-1.58334 -0.13541,-2.75 -0.125,-1.16667 -0.5,-1.97916 -0.36459,-0.80209 -1,-1.20834 -0.625,-0.40624 -1.61458,-0.40624 -0.97917,0 -1.625,0.40624 -0.63542,0.40625 -1.01042,1.22917 -0.35416,0.77083 -0.48958,2.01041 -0.125,1.23958 -0.125,2.71875 0,1.625 0.11459,2.71874 0.11458,1.09375 0.48958,1.95833 0.34375,0.8125 0.96875,1.23959 0.63541,0.42708 1.67708,0.42708 0.97916,0 1.62499,-0.40625 0.64584,-0.40625 1,-1.22917 z" />
        <path
           d="m 221.36375,393.04622 -8.83112,1.1098 v -1.24272 l 3.48469,-0.41777 v -8.02713 l -3.48469,0.2855 v -1.1119 c 0.47883,-0.0367 0.9895,-0.10308 1.53155,-0.19873 0.5393,-0.10057 0.94571,-0.215 1.22074,-0.34344 0.34094,-0.15994 0.60699,-0.34878 0.79873,-0.56662 0.19874,-0.22333 0.31267,-0.50985 0.34205,-0.85979 l 1.69378,-0.1166 v 10.68669 l 3.24427,-0.38895 z"
           id="path1258"
           inkscape:original-d="m 204.16854,401.55994 h -8.39582 v -1.58333 h 3.22916 v -10.39582 h -3.22916 v -1.41666 q 0.65625,0 1.40625,-0.10417 0.75,-0.11458 1.13541,-0.32291 0.47917,-0.26042 0.75,-0.65625 0.28125,-0.40625 0.32292,-1.08334 h 1.61458 v 13.97915 h 3.16666 z" />
        <path
           d="m 234.9558,385.88258 c 0,1.95765 -0.38577,3.43972 -1.16197,4.4523 -0.77623,1.01505 -1.99649,1.6309 -3.6775,1.84413 -1.73628,0.22024 -3.02556,-0.0989 -3.84988,-0.9658 -0.82441,-0.87478 -1.23915,-2.3262 -1.23915,-4.34887 0,-2.03807 0.42147,-3.57591 1.25917,-4.60709 0.83078,-1.02773 2.11319,-1.59746 3.82986,-1.71402 1.70626,-0.11584 2.93244,0.27668 3.69606,1.17077 0.76378,0.88172 1.14341,2.26951 1.14341,4.16858 z m -2.44139,3.60436 c 0.2191,-0.4251 0.36593,-0.91041 0.44082,-1.45632 0.0811,-0.55107 0.12159,-1.206 0.12159,-1.96516 0,-0.74929 -0.0405,-1.39635 -0.12159,-1.94149 -0.0749,-0.54614 -0.22485,-1.00261 -0.45023,-1.36976 -0.21961,-0.36354 -0.5216,-0.62748 -0.90673,-0.79167 -0.3803,-0.16532 -0.87371,-0.22577 -1.48194,-0.18066 -0.60553,0.0449 -1.11083,0.18053 -1.51431,0.40733 -0.39859,0.22723 -0.71664,0.55021 -0.95337,0.96902 -0.2241,0.39336 -0.37928,0.896 -0.46523,1.50766 -0.0794,0.61158 -0.11914,1.27838 -0.11914,2.00003 0,0.7928 0.0364,1.45219 0.10921,1.97789 0.0727,0.52532 0.22797,0.98515 0.46529,1.37908 0.21705,0.36998 0.52209,0.63519 0.91431,0.79573 0.39719,0.15913 0.91893,0.19943 1.56324,0.12174 0.60184,-0.0726 1.09846,-0.22949 1.49143,-0.47038 0.39139,-0.23993 0.69333,-0.5676 0.90665,-0.98304 z"
           id="path1260"
           inkscape:original-d="m 218.5956,393.79954 q 0,4.17707 -1.3125,6.1354 -1.30208,1.94792 -4.05207,1.94792 -2.79167,0 -4.08333,-1.97917 -1.28125,-1.97916 -1.28125,-6.08332 0,-4.13541 1.30208,-6.10416 1.30208,-1.97916 4.0625,-1.97916 2.79166,0 4.07291,2.01041 1.29166,2 1.29166,6.05208 z m -2.73958,4.72915 q 0.36458,-0.84374 0.48958,-1.97916 0.13542,-1.14583 0.13542,-2.74999 0,-1.58334 -0.13542,-2.75 -0.125,-1.16667 -0.5,-1.97916 -0.36458,-0.80209 -0.99999,-1.20834 -0.625,-0.40624 -1.61458,-0.40624 -0.97917,0 -1.625,0.40624 -0.63542,0.40625 -1.01042,1.22917 -0.35416,0.77083 -0.48958,2.01041 -0.125,1.23958 -0.125,2.71875 0,1.625 0.11458,2.71874 0.11459,1.09375 0.48959,1.95833 0.34375,0.8125 0.96874,1.23959 0.63542,0.42708 1.67709,0.42708 0.97916,0 1.62499,-0.40625 0.64583,-0.40625 1,-1.22917 z" />
        <path
           d="m 246.19406,384.78873 c 0,1.84337 -0.34201,3.2365 -1.02991,4.18472 -0.68761,0.95011 -1.76791,1.52103 -3.25479,1.70964 -1.53418,0.1946 -2.67235,-0.11449 -3.39959,-0.93444 -0.72695,-0.82698 -1.09253,-2.19231 -1.09253,-4.09119 0,-1.91335 0.37151,-3.35515 1.11019,-4.31975 0.73295,-0.96188 1.86507,-1.49216 3.38193,-1.59514 1.50923,-0.10247 2.59478,0.27157 3.27122,1.11616 0.67691,0.83333 1.01348,2.14178 1.01348,3.93 z m -2.16309,3.37841 c 0.19399,-0.39863 0.32401,-0.8544 0.39033,-1.36767 0.0718,-0.51812 0.10768,-1.13424 0.10768,-1.84867 0,-0.70516 -0.0359,-1.3143 -0.10768,-1.82772 -0.0663,-0.51429 -0.19911,-0.94454 -0.39866,-1.29102 -0.19442,-0.34302 -0.46173,-0.59264 -0.80256,-0.74874 -0.33647,-0.1571 -0.77291,-0.216 -1.31072,-0.17611 -0.53523,0.0397 -0.98171,0.16505 -1.33814,0.3765 -0.35201,0.21182 -0.63283,0.51392 -0.84182,0.90637 -0.19781,0.36852 -0.33478,0.84 -0.41063,1.41419 -0.0701,0.57412 -0.10513,1.2003 -0.10513,1.8782 0,0.74474 0.0321,1.36438 0.0964,1.85866 0.0642,0.49394 0.20119,0.92692 0.41067,1.29855 0.19161,0.34905 0.46094,0.60027 0.80733,0.75377 0.35085,0.15225 0.81185,0.19367 1.38135,0.125 0.53217,-0.0642 0.97144,-0.20841 1.31912,-0.43237 0.34637,-0.22312 0.61364,-0.52943 0.80249,-0.91894 z"
           id="path1262"
           inkscape:original-d="m 232.15808,393.79954 q 0,4.17707 -1.3125,6.1354 -1.30208,1.94792 -4.05208,1.94792 -2.79166,0 -4.08332,-1.97917 -1.28125,-1.97916 -1.28125,-6.08332 0,-4.13541 1.30208,-6.10416 1.30208,-1.97916 4.06249,-1.97916 2.79166,0 4.07291,2.01041 1.29167,2 1.29167,6.05208 z m -2.73958,4.72915 q 0.36458,-0.84374 0.48958,-1.97916 0.13542,-1.14583 0.13542,-2.74999 0,-1.58334 -0.13542,-2.75 -0.125,-1.16667 -0.5,-1.97916 -0.36458,-0.80209 -1,-1.20834 -0.625,-0.40624 -1.61458,-0.40624 -0.97916,0 -1.625,0.40624 -0.63541,0.40625 -1.01041,1.22917 -0.35417,0.77083 -0.48958,2.01041 -0.125,1.23958 -0.125,2.71875 0,1.625 0.11458,2.71874 0.11458,1.09375 0.48958,1.95833 0.34375,0.8125 0.96875,1.23959 0.63542,0.42708 1.67708,0.42708 0.97917,0 1.625,-0.40625 0.64583,-0.40625 1,-1.22917 z" />
        <path
           d="m 255.58831,388.74525 -6.09854,0.7664 v -1.02905 l 2.39612,-0.28726 v -6.66558 l -2.39612,0.19631 v -0.92073 c 0.32846,-0.0252 0.67904,-0.0746 1.05146,-0.14801 0.37087,-0.0776 0.65056,-0.16814 0.83993,-0.27179 0.23488,-0.12915 0.41826,-0.28315 0.55047,-0.46205 0.13707,-0.18346 0.21567,-0.42029 0.23594,-0.71068 l 1.17028,-0.0806 v 8.88902 l 2.25046,-0.2698 z"
           id="path1264"
           inkscape:original-d="m 244.85598,401.55994 h -8.39582 v -1.58333 h 3.22916 v -10.39582 h -3.22916 v -1.41666 q 0.65625,0 1.40625,-0.10417 0.75,-0.11458 1.13541,-0.32291 0.47917,-0.26042 0.75,-0.65625 0.28125,-0.40625 0.32292,-1.08334 h 1.61458 v 13.97915 h 3.16666 z" />
        <path
           d="m 265.14604,382.94409 c 0,1.65066 -0.27418,2.89446 -0.82534,3.73564 -0.55049,0.84221 -1.41447,1.33995 -2.60187,1.49056 -1.22305,0.15515 -2.129,-0.13438 -2.70724,-0.87409 -0.57754,-0.74537 -0.86779,-1.96588 -0.86779,-3.65769 0,-1.70469 0.29496,-2.98639 0.88182,-3.84062 0.5828,-0.85257 1.48396,-1.31815 2.69321,-1.40025 1.20526,-0.0818 2.07347,0.25977 2.61503,1.02011 0.54235,0.75086 0.81218,1.92506 0.81218,3.52634 z m -1.73231,3.00177 c 0.15518,-0.35444 0.25921,-0.76076 0.31228,-1.21921 0.0575,-0.46278 0.0862,-1.01361 0.0862,-1.65274 0,-0.63083 -0.0287,-1.17607 -0.0862,-1.63596 -0.0531,-0.46059 -0.15931,-0.84648 -0.31894,-1.1579 -0.15549,-0.30821 -0.36921,-0.53337 -0.64163,-0.67538 -0.26882,-0.14282 -0.61736,-0.19855 -1.04661,-0.16671 -0.42693,0.0317 -0.78287,0.14041 -1.06688,0.3266 -0.28038,0.18647 -0.50398,0.45395 -0.67034,0.80249 -0.15742,0.32722 -0.26639,0.74667 -0.32674,1.25819 -0.0557,0.51146 -0.0836,1.06962 -0.0836,1.67423 0,0.66421 0.0256,1.21716 0.0767,1.65867 0.0511,0.44124 0.16007,0.82892 0.32677,1.16273 0.15252,0.31354 0.36696,0.54074 0.64285,0.68168 0.27956,0.13991 0.64705,0.1822 1.10131,0.12743 0.42475,-0.0512 0.77555,-0.17509 1.05333,-0.37133 0.27684,-0.19559 0.49054,-0.46651 0.64157,-0.81279 z"
           id="path1266"
           inkscape:original-d="m 259.28304,393.79954 q 0,4.17707 -1.3125,6.1354 -1.30208,1.94792 -4.05208,1.94792 -2.79166,0 -4.08332,-1.97917 -1.28125,-1.97916 -1.28125,-6.08332 0,-4.13541 1.30208,-6.10416 1.30208,-1.97916 4.06249,-1.97916 2.79167,0 4.07291,2.01041 1.29167,2 1.29167,6.05208 z m -2.73958,4.72915 q 0.36458,-0.84374 0.48958,-1.97916 0.13542,-1.14583 0.13542,-2.74999 0,-1.58334 -0.13542,-2.75 -0.125,-1.16667 -0.5,-1.97916 -0.36458,-0.80209 -1,-1.20834 -0.62499,-0.40624 -1.61458,-0.40624 -0.97916,0 -1.62499,0.40624 -0.63542,0.40625 -1.01042,1.22917 -0.35416,0.77083 -0.48958,2.01041 -0.125,1.23958 -0.125,2.71875 0,1.625 0.11458,2.71874 0.11459,1.09375 0.48958,1.95833 0.34375,0.8125 0.96875,1.23959 0.63542,0.42708 1.67708,0.42708 0.97917,0 1.625,-0.40625 0.64583,-0.40625 1,-1.22917 z" />
      </g>
      <path
         id="rect234"
         style="fill:#000000;fill-rule:evenodd;stroke:#000000;stroke-width:0.190286;-inkscape-stroke:none;paint-order:stroke fill markers;stop-color:#000000"
         d="m 48.720951,21.778426 a 14.6523,14.82852 0 0 0 -14.495296,12.68646 c -1.753987,0.548465 -3.005797,2.034013 -3.005797,3.790955 v 24.948792 c 0,2.22595 2.008629,4.01818 4.503368,4.01818 h 25.995445 c 2.49474,0 4.50337,-1.79223 4.50337,-4.01818 V 38.255841 c 0,-1.756196 -1.25096,-3.241021 -3.00377,-3.79005 A 14.6523,14.82852 0 0 0 48.720951,21.778426 Z m 0,4.19291 a 13.533135,15.707558 0 0 1 11.91766,8.266772 H 36.810893 a 13.533135,15.707558 0 0 1 11.910058,-8.266772 z m 0,15.396936 a 5.7920747,5.1680512 0 0 1 5.79193,5.168374 5.7920747,5.1680512 0 0 1 -1.57012,3.536564 l 1.15666,11.080453 h -10.75745 l 1.15717,-11.080453 a 5.7920747,5.1680512 0 0 1 -1.570628,-3.536564 5.7920747,5.1680512 0 0 1 5.792438,-5.168374 z" />
    </g>
  </g>
</svg>
